<svg width="20" height="21" viewBox="0 0 20 21" fill="none" xmlns="http://www.w3.org/2000/svg">
<path d="M2.08337 10.235C2.08337 6.50308 2.08337 4.6371 3.24274 3.47773C4.40212 2.31836 6.26809 2.31836 10 2.31836C13.732 2.31836 15.598 2.31836 16.7574 3.47773C17.9167 4.6371 17.9167 6.50308 17.9167 10.235C17.9167 13.9669 17.9167 15.8329 16.7574 16.9924C15.598 18.1517 13.732 18.1517 10 18.1517C6.26809 18.1517 4.40212 18.1517 3.24274 16.9924C2.08337 15.8329 2.08337 13.9669 2.08337 10.235Z" stroke="white" stroke-width="1.25" stroke-linejoin="round"/>
<path d="M14.1055 6.92334H11.6514C10.7816 6.92334 10.0746 7.62509 10.0682 8.49494L9.99707 18.0904M8.40173 11.9028H12.404" stroke="white" stroke-width="1.25" stroke-linecap="round" stroke-linejoin="round"/>
</svg>
