<svg width="20" height="21" viewBox="0 0 20 21" fill="none" xmlns="http://www.w3.org/2000/svg">
<path d="M2.08325 10.235C2.08325 6.50308 2.08325 4.6371 3.24262 3.47773C4.40199 2.31836 6.26797 2.31836 9.99992 2.31836C13.7318 2.31836 15.5978 2.31836 16.7573 3.47773C17.9166 4.6371 17.9166 6.50308 17.9166 10.235C17.9166 13.9669 17.9166 15.8329 16.7573 16.9924C15.5978 18.1517 13.7318 18.1517 9.99992 18.1517C6.26797 18.1517 4.40199 18.1517 3.24262 16.9924C2.08325 15.8329 2.08325 13.9669 2.08325 10.235Z" stroke="white" stroke-width="1.25" stroke-linejoin="round"/>
<path d="M13.75 10.2349C13.75 12.3059 12.0711 13.9849 10 13.9849C7.92893 13.9849 6.25 12.3059 6.25 10.2349C6.25 8.1638 7.92893 6.48486 10 6.48486C12.0711 6.48486 13.75 8.1638 13.75 10.2349Z" stroke="white" stroke-width="1.25"/>
<path d="M14.5898 5.65137H14.5823" stroke="white" stroke-width="1.66667" stroke-linecap="round" stroke-linejoin="round"/>
</svg>
