<svg width="14" height="17" viewBox="0 0 14 17" fill="none" xmlns="http://www.w3.org/2000/svg">
<path d="M4.19016 9.4251H3.80769C2.57125 9.4251 1.95302 9.4251 1.68951 9.01744C1.42599 8.60985 1.67707 8.04194 2.17924 6.90613L3.68894 3.49146C4.14551 2.45877 4.37381 1.94242 4.81668 1.65309C5.25956 1.36377 5.82162 1.36377 6.94587 1.36377H8.68704C10.0527 1.36377 10.7355 1.36377 10.993 1.80989C11.2506 2.25602 10.9119 2.852 10.2343 4.04396L9.34104 5.61534C9.00421 6.20789 8.83579 6.50418 8.83812 6.7467C8.84121 7.06189 9.00879 7.35227 9.27954 7.51127C9.48787 7.63369 9.82729 7.63369 10.5062 7.63369C11.3645 7.63369 11.7936 7.63369 12.0171 7.78227C12.3075 7.97527 12.4595 8.3206 12.4062 8.66644C12.3652 8.9326 12.0765 9.25177 11.4992 9.89019L6.88662 14.9907C5.98062 15.9925 5.52762 16.4934 5.22343 16.3349C4.91923 16.1764 5.06531 15.5156 5.35746 14.1939L5.92979 11.6051C6.15221 10.5988 6.26346 10.0956 5.99596 9.76035C5.72846 9.4251 5.21568 9.4251 4.19016 9.4251Z" stroke="#99E39E" stroke-width="1.25" stroke-linejoin="round"/>
</svg>
