<svg width="20" height="21" viewBox="0 0 20 21" fill="none" xmlns="http://www.w3.org/2000/svg">
<path d="M12.9166 10.8638C12.9166 12.4746 11.6108 13.7805 9.99992 13.7805C8.38909 13.7805 7.08325 12.4746 7.08325 10.8638C7.08325 9.25298 8.38909 7.94714 9.99992 7.94714C11.6108 7.94714 12.9166 9.25298 12.9166 10.8638Z" stroke="#99E39E" stroke-width="1.25"/>
<path d="M17.5092 12.6109C17.9442 12.4936 18.1617 12.435 18.2475 12.3228C18.3334 12.2107 18.3334 12.0303 18.3334 11.6695V10.0581C18.3334 9.69737 18.3334 9.51695 18.2475 9.40487C18.1616 9.2927 17.9442 9.23403 17.5092 9.11677C15.8839 8.67844 14.8667 6.97921 15.2862 5.36451C15.4015 4.92044 15.4592 4.69842 15.4041 4.56819C15.349 4.43797 15.191 4.34823 14.8748 4.16875L13.4376 3.35273C13.1274 3.17661 12.9723 3.08855 12.8332 3.1073C12.6939 3.12605 12.5369 3.28273 12.2227 3.59606C11.0067 4.80918 8.99475 4.80913 7.7787 3.59598C7.46461 3.28264 7.30756 3.12598 7.16836 3.10722C7.02916 3.08847 6.87406 3.17653 6.56386 3.35264L5.12661 4.16868C4.81052 4.34814 4.65247 4.43788 4.5974 4.56808C4.54231 4.69828 4.59997 4.92034 4.71529 5.36445C5.13456 6.9792 4.11651 8.67848 2.49093 9.11678C2.05601 9.23403 1.83856 9.2927 1.75265 9.40478C1.66675 9.51695 1.66675 9.69737 1.66675 10.0581V11.6695C1.66675 12.0303 1.66675 12.2107 1.75265 12.3228C1.83854 12.435 2.05601 12.4936 2.49093 12.6109C4.11625 13.0492 5.13348 14.7485 4.71401 16.3631C4.59866 16.8072 4.54097 17.0292 4.59605 17.1595C4.65113 17.2897 4.80918 17.3795 5.12529 17.5589L6.56254 18.375C6.87276 18.551 7.02786 18.6391 7.16708 18.6204C7.3063 18.6016 7.46331 18.4449 7.77734 18.1315C8.994 16.9175 11.0074 16.9174 12.2242 18.1315C12.5382 18.4449 12.6952 18.6015 12.8344 18.6203C12.9736 18.639 13.1287 18.551 13.4389 18.3749L14.8762 17.5588C15.1923 17.3794 15.3504 17.2896 15.4054 17.1594C15.4605 17.0291 15.4028 16.8071 15.2874 16.363C14.8677 14.7485 15.8842 13.0493 17.5092 12.6109Z" stroke="#99E39E" stroke-width="1.25" stroke-linecap="round"/>
</svg>
