<svg width="24" height="25" viewBox="0 0 24 25" fill="none" xmlns="http://www.w3.org/2000/svg">
<path d="M10.125 15.2348V9.23486M12 9.23486V7.73486M12 16.7348V15.2348M10.125 12.2348H13.875M13.875 12.2348C14.4963 12.2348 15 12.7385 15 13.3598V14.1098C15 14.7311 14.4963 15.2348 13.875 15.2348H9M13.875 12.2348C14.4963 12.2348 15 11.7311 15 11.1098V10.3599C15 9.73854 14.4963 9.23486 13.875 9.23486H9" stroke="#99E39E" stroke-width="1.5" stroke-linecap="round" stroke-linejoin="round"/>
<path d="M21 11.9182V9.01515C21 7.37515 21 6.55515 20.5959 6.02015C20.1918 5.48516 19.2781 5.22543 17.4507 4.70596C16.2022 4.35106 15.1016 3.92349 14.2223 3.53315C13.0234 3.00096 12.424 2.73486 12 2.73486C11.576 2.73486 10.9766 3.00096 9.77771 3.53315C8.89839 3.92349 7.79784 4.35106 6.54933 4.70596C4.72193 5.22543 3.80822 5.48516 3.40411 6.02015C3 6.55515 3 7.37515 3 9.01515V11.9182C3 17.5434 8.06277 20.9184 10.594 22.2543C11.2011 22.5747 11.5046 22.7349 12 22.7349C12.4954 22.7349 12.7989 22.5747 13.406 22.2543C15.9372 20.9184 21 17.5434 21 11.9182Z" stroke="#99E39E" stroke-width="1.5" stroke-linecap="round"/>
</svg>
