<svg width="490" height="233" viewBox="0 0 490 233" fill="none" xmlns="http://www.w3.org/2000/svg">
<g opacity="0.05">
<path d="M120.749 -2.94367C138.874 -33.6158 163.668 -60.2329 193.421 -80.959C223.174 -101.685 257.178 -116.027 293.087 -122.995C328.996 -129.964 365.956 -129.393 401.418 -121.323C436.88 -113.252 469.999 -97.8736 498.492 -76.248L426.851 10.1668C411.254 -1.67103 393.124 -10.0892 373.713 -14.507C354.301 -18.9249 334.069 -19.2373 314.412 -15.4228C294.756 -11.6082 276.142 -3.75745 259.855 7.58801C243.568 18.9335 229.996 33.5036 220.074 50.2935L120.749 -2.94367Z" fill="white"/>
<path d="M541.638 212.744C522.359 242.771 496.574 268.508 466.061 288.18C435.548 307.853 401.033 320.992 364.898 326.693C328.762 332.394 291.866 330.52 256.753 321.201C221.641 311.881 189.148 295.338 161.516 272.713L236.385 188.843C251.51 201.228 269.297 210.284 288.518 215.385C307.738 220.487 327.935 221.512 347.716 218.392C367.496 215.271 386.389 208.078 403.092 197.31C419.795 186.541 433.91 172.453 444.463 156.016L541.638 212.744Z" fill="white"/>
<path d="M276.731 114.13L155.516 242.348L123.592 26.486L276.731 114.13Z" fill="white"/>
<path d="M208.138 124.274L86.9228 252.492L54.9987 36.6303L208.138 124.274Z" fill="white"/>
</g>
</svg>
